<svg width="189" height="31" viewBox="0 0 189 31" fill="none" xmlns="http://www.w3.org/2000/svg">
<path d="M0.28 30L11.12 2.56H16.12L27 30H22.88L20.2 23.2H6.84L4.2 30H0.28ZM8.08 19.96H18.92L15.6 11.36C15.52 11.12 15.4 10.7867 15.24 10.36C15.08 9.93333 14.9067 9.46667 14.72 8.96C14.5333 8.42667 14.3467 7.89333 14.16 7.36C13.9733 6.8 13.8 6.29333 13.64 5.84H13.4C13.2133 6.37333 13 6.98666 12.76 7.68C12.52 8.37333 12.28 9.05333 12.04 9.72C11.8 10.36 11.6 10.9067 11.44 11.36L8.08 19.96ZM41.9178 30.48C39.1178 30.48 36.7445 29.9733 34.7978 28.96C32.8511 27.92 31.3578 26.36 30.3178 24.28C29.3045 22.1733 28.7978 19.5067 28.7978 16.28C28.7978 11.5067 29.9578 7.94667 32.2778 5.6C34.5978 3.25333 37.8245 2.08 41.9578 2.08C44.3045 2.08 46.3845 2.46667 48.1978 3.24C50.0111 3.98667 51.4245 5.13333 52.4378 6.68C53.4778 8.2 53.9978 10.12 53.9978 12.44H50.1578C50.1578 10.84 49.8111 9.52 49.1178 8.48C48.4511 7.44 47.5045 6.66667 46.2778 6.16C45.0511 5.62666 43.6111 5.36 41.9578 5.36C40.0378 5.36 38.3845 5.73333 36.9978 6.48C35.6111 7.22667 34.5578 8.38667 33.8378 9.96C33.1178 11.5067 32.7578 13.5067 32.7578 15.96V16.8C32.7578 19.2267 33.1178 21.2133 33.8378 22.76C34.5578 24.28 35.5978 25.4 36.9578 26.12C38.3445 26.84 40.0111 27.2 41.9578 27.2C43.6645 27.2 45.1311 26.9467 46.3578 26.44C47.6111 25.9333 48.5711 25.16 49.2378 24.12C49.9311 23.0533 50.2778 21.72 50.2778 20.12H53.9978C53.9978 22.4933 53.4645 24.44 52.3978 25.96C51.3578 27.48 49.9311 28.6133 48.1178 29.36C46.3045 30.1067 44.2378 30.48 41.9178 30.48ZM75.2988 30.68L74.5788 30.36L76.7388 20.2L66.5788 22.36L66.2588 21.64L74.5788 15.48L66.2588 9.4L66.5788 8.68L76.7388 10.76L74.5788 0.679998L75.2988 0.359998L81.4588 8.68L87.5388 0.359998L88.2588 0.679998L86.1788 10.76L96.2588 8.68L96.5788 9.4L88.2588 15.48L96.5788 21.64L96.2588 22.36L86.1788 20.2L88.2588 30.36L87.5388 30.68L81.4588 22.36L75.2988 30.68ZM110.432 30V2.56H120.672C123.552 2.56 126.006 3.04 128.032 4C130.059 4.96 131.606 6.45333 132.672 8.48C133.766 10.48 134.312 13.08 134.312 16.28C134.312 19.4267 133.766 22.0133 132.672 24.04C131.606 26.0667 130.059 27.5733 128.032 28.56C126.006 29.52 123.552 30 120.672 30H110.432ZM114.232 26.72H120.592C122.112 26.72 123.472 26.5333 124.672 26.16C125.872 25.76 126.899 25.16 127.752 24.36C128.606 23.56 129.246 22.5333 129.672 21.28C130.126 20 130.352 18.48 130.352 16.72V15.92C130.352 14.1067 130.126 12.5733 129.672 11.32C129.246 10.04 128.606 9 127.752 8.2C126.926 7.4 125.912 6.81333 124.712 6.44C123.512 6.04 122.139 5.84 120.592 5.84H114.232V26.72ZM139.807 30V2.56H160.927V5.84H143.607V14.32H159.167V17.6H143.607V26.72H161.167V30H139.807ZM174.078 30L163.838 2.56H167.958L174.998 22C175.158 22.3733 175.318 22.8 175.478 23.28C175.638 23.76 175.798 24.2267 175.958 24.68C176.118 25.1333 176.264 25.5333 176.398 25.88H176.638C176.744 25.56 176.878 25.1733 177.038 24.72C177.198 24.2667 177.358 23.8133 177.518 23.36C177.678 22.88 177.838 22.4267 177.998 22L184.958 2.56H188.958L178.678 30H174.078Z" fill="white"/>
</svg>
